<svg xmlns="http://www.w3.org/2000/svg" xmlns:xlink="http://www.w3.org/1999/xlink" width="512" height="512" viewBox="0 0 512 512">
  <defs>
    <filter id="Rectangle_2" x="172.943" y="176.336" width="314.76" height="314.76" filterUnits="userSpaceOnUse">
      <feOffset dy="3" input="SourceAlpha"/>
      <feGaussianBlur stdDeviation="8" result="blur"/>
      <feFlood flood-opacity="0.161"/>
      <feComposite operator="in" in2="blur"/>
      <feComposite in="SourceGraphic"/>
    </filter>
    <clipPath id="clip-logo512">
      <rect width="512" height="512"/>
    </clipPath>
  </defs>
  <g id="logo512" clip-path="url(#clip-logo512)">
    <path id="Rectangle_1" data-name="Rectangle 1" d="M83.347,0H293.908a0,0,0,0,1,0,0V83.347a0,0,0,0,1,0,0H0a0,0,0,0,1,0,0v0A83.347,83.347,0,0,1,83.347,0Z" transform="translate(48.046 255.729) rotate(-45)" fill="#bcc999"/>
    <path id="Rectangle_5" data-name="Rectangle 5" d="M0,0H208.368a83.347,83.347,0,0,1,83.347,83.347v0a0,0,0,0,1,0,0H0a0,0,0,0,1,0,0V0A0,0,0,0,1,0,0Z" transform="translate(255.871 463.811) rotate(-135)" fill="#bcc999"/>
    <g transform="matrix(1, 0, 0, 1, 0, 0)" filter="url(#Rectangle_2)">
      <path id="Rectangle_2-2" data-name="Rectangle 2" d="M83.347,0H293.908a0,0,0,0,1,0,0V0a83.347,83.347,0,0,1-83.347,83.347H0a0,0,0,0,1,0,0v0A83.347,83.347,0,0,1,83.347,0Z" transform="translate(463.7 256.27) rotate(135)" fill="#c8ff3a"/>
    </g>
    <path id="Rectangle_4" data-name="Rectangle 4" d="M0,0H100.894a83.347,83.347,0,0,1,83.347,83.347v0a0,0,0,0,1,0,0H0a0,0,0,0,1,0,0V0A0,0,0,0,1,0,0Z" transform="translate(333.676 125.451) rotate(45)" fill="#c8ff3a"/>
    <path id="Rectangle_6" data-name="Rectangle 6" d="M0,0H177.241a7,7,0,0,1,7,7V65.38a7,7,0,0,1-7,7H0a0,0,0,0,1,0,0V0A0,0,0,0,1,0,0Z" transform="translate(384.793 176.631) rotate(135)" fill="#c8ff3a"/>
  </g>
</svg>
